HIERARCHY
ROOT Pelvis
{

	OFFSET     0.000000     0.000000     0.000000
	CHANNELS 6 Xposition Yposition Zposition Zrotation Xrotation Yrotation
	JOINT LowerBack
	{

		OFFSET    -0.000691     0.176488     0.017766
		CHANNELS 3 Zrotation Xrotation Yrotation
		JOINT Chest
		{

			OFFSET    -0.002754     0.128976    -0.000512
			CHANNELS 3 Zrotation Xrotation Yrotation
			JOINT back3
			{

				OFFSET     0.002471     0.201657    -0.000850
				CHANNELS 3 Zrotation Xrotation Yrotation
				JOINT Neck
				{

					OFFSET     0.001840     0.072570     0.000595
					CHANNELS 3 Zrotation Xrotation Yrotation
					JOINT Head
					{

						OFFSET     0.003323     0.152818     0.030907
						CHANNELS 3 Zrotation Xrotation Yrotation
						JOINT joint7
						{

							OFFSET     0.000612     0.183936     0.002625
							CHANNELS 3 Zrotation Xrotation Yrotation
							End Site
							{
								OFFSET     0.000000     0.000000     0.018310
							}
						}

					}

				}

				JOINT LeftCollar
				{

					OFFSET     0.053456     0.093486     0.002205
					CHANNELS 3 Zrotation Xrotation Yrotation
					JOINT LeftShoulder
					{

						OFFSET     0.112884    -0.020868     0.002319
						CHANNELS 3 Zrotation Xrotation Yrotation
						JOINT LeftElbow
						{

							OFFSET     0.297302     0.003523    -0.020737
							CHANNELS 3 Zrotation Xrotation Yrotation
							JOINT LeftWrist
							{

								OFFSET     0.290007     0.004431    -0.007313
								CHANNELS 3 Zrotation Xrotation Yrotation
								JOINT lf_hand
								{

									OFFSET     0.117001    -0.002589    -0.008771
									CHANNELS 3 Zrotation Xrotation Yrotation
									End Site
									{
										OFFSET     0.000000    -0.009821     0.000000
									}
								}

							}

						}

					}

				}

				JOINT RightCollar
				{

					OFFSET    -0.048666     0.096092     0.000301
					CHANNELS 3 Zrotation Xrotation Yrotation
					JOINT RightShoulder
					{

						OFFSET    -0.115072    -0.022479    -0.001894
						CHANNELS 3 Zrotation Xrotation Yrotation
						JOINT RightElbow
						{

							OFFSET    -0.297072     0.004954    -0.020752
							CHANNELS 3 Zrotation Xrotation Yrotation
							JOINT RightWrist
							{

								OFFSET    -0.292425    -0.005826    -0.023258
								CHANNELS 3 Zrotation Xrotation Yrotation
								JOINT rt_hand
								{

									OFFSET    -0.118185    -0.001061    -0.015047
									CHANNELS 3 Zrotation Xrotation Yrotation
									End Site
									{
										OFFSET     0.000000    -0.009987     0.000000
									}
								}

							}

						}

					}

				}

			}

			JOINT joint13
			{

				OFFSET     0.125914     0.117470     0.000000
				CHANNELS 3 Zrotation Xrotation Yrotation
				End Site
				{
					OFFSET     0.000000     0.000000    -0.017144
				}
			}

			JOINT joint14
			{

				OFFSET    -0.120063     0.114907     0.000000
				CHANNELS 3 Zrotation Xrotation Yrotation
				End Site
				{
					OFFSET     0.000000     0.000000    -0.016479
				}
			}

		}

	}

	JOINT RightHip
	{

		OFFSET    -0.109283    -0.057257     0.000987
		CHANNELS 3 Zrotation Xrotation Yrotation
		JOINT RightKnee
		{

			OFFSET     0.002149    -0.429339     0.038617
			CHANNELS 3 Zrotation Xrotation Yrotation
			JOINT RightAnkle
			{

				OFFSET    -0.001765    -0.522522    -0.077092
				CHANNELS 3 Zrotation Xrotation Yrotation
				JOINT r_ball
				{

					OFFSET    -0.000000    -0.037315     0.142913
					CHANNELS 3 Zrotation Xrotation Yrotation
					End Site
					{
						OFFSET     0.000000     0.000000     0.014648
					}
				}

			}

		}

	}

	JOINT LeftHip
	{

		OFFSET     0.098180    -0.056757     0.003895
		CHANNELS 3 Zrotation Xrotation Yrotation
		JOINT LeftKnee
		{

			OFFSET     0.007057    -0.430531     0.035812
			CHANNELS 3 Zrotation Xrotation Yrotation
			JOINT LeftAnkle
			{

				OFFSET    -0.005475    -0.521755    -0.078136
				CHANNELS 3 Zrotation Xrotation Yrotation
				JOINT lf_ball
				{

					OFFSET     0.000065    -0.036737     0.143337
					CHANNELS 3 Zrotation Xrotation Yrotation
					End Site
					{
						OFFSET     0.000000     0.000000     0.014648
					}
				}

			}

		}

	}

}

MOTION
Frames: 9
Frame Time: 0.033333
    0.000000     0.933921     0.000000     6.323505    11.795137     1.860443    -7.519167    -9.694983    -0.934073    -2.311292     2.917739    -1.025979     0.000000     0.000000     0.000000     0.000000     0.000000     0.000000    10.193478     8.456146    31.618921     0.000000     0.000000     0.000000     2.141795    -0.185382    -5.043115   -55.756760   -14.859125   -16.652332     3.103245     2.242305  -108.305038    34.421104    -9.242893   -44.239510     0.000000     0.000000     0.000000    -4.389927    -0.365606     4.782939    74.024078    -1.271988     4.288905    -2.455789     2.353350    92.441246    -2.329018   -22.044527   -16.613092     0.000000     0.000000     0.000000     0.000000     0.000000     0.000000     0.000000     0.000000     0.000000    -3.767045    -4.513602   -31.014484     0.000000     9.982210     0.000000     1.050728   -18.603809    -7.107050     0.000000     0.000000     0.000000    -8.786242   -19.817390     1.510665     0.000000    -4.646651     0.000000     3.939640     5.845353     5.829517     0.000000     0.000000     0.000000 
    0.007095     0.935668     0.016862     6.040707    11.647330     1.960510    -7.266903    -9.872710    -0.916923    -2.114699     3.001941    -0.756481     0.000000     0.000000     0.000000     0.000000     0.000000     0.000000     9.828326     9.175900    32.089035     0.000000     0.000000     0.000000     2.713904    -0.236908    -4.971366   -56.008049   -14.335695   -18.114069     3.089909     2.248570  -107.918411    34.934208    -9.589612   -43.810974     0.000000     0.000000     0.000000    -4.426064    -0.347905     4.468165    74.029106    -1.008066     4.546235    -2.440911     2.358940    92.193619    -2.603900   -21.792904   -16.886543     0.000000     0.000000     0.000000     0.000000     0.000000     0.000000     0.000000     0.000000     0.000000    -4.110687    -3.333717   -30.550056     0.000000     9.898569     0.000000     2.317464   -17.021395    -7.435700     0.000000     0.000000     0.000000    -8.974701   -19.015245     1.624844     0.000000    -3.701988     0.000000     4.240322     4.766108     5.621404     0.000000     0.000000     0.000000 
    0.014596     0.937466     0.034326     5.757407    11.484755     2.067479    -7.000074   -10.078797    -0.892418    -1.912397     3.093457    -0.452299     0.000000     0.000000     0.000000     0.000000     0.000000     0.000000     9.420775    10.054784    32.531437     0.000000     0.000000     0.000000     2.999928    -0.262024    -4.921178   -56.274906   -13.761497   -19.641642     3.080056     2.250450  -107.698494    35.249985    -9.785609   -43.629719     0.000000     0.000000     0.000000    -4.469388    -0.330018     4.146655    74.015564    -0.770021     4.769430    -2.435327     2.354625    91.931030    -2.876211   -21.553070   -17.143316     0.000000     0.000000     0.000000     0.000000     0.000000     0.000000     0.000000     0.000000     0.000000    -4.603103    -2.364836   -29.494139     0.000000    10.256471     0.000000     3.679389   -15.024199    -8.257360     0.000000     0.000000     0.000000    -9.198301   -17.615875     1.569038     0.000000    -3.645597     0.000000     4.614798     3.254232     5.587354     0.000000     0.000000     0.000000 
    0.022098     0.939289     0.051790     5.473644    11.314333     2.180882    -6.732448   -10.292131    -0.860276    -1.710649     3.185748    -0.141394     0.000000     0.000000     0.000000     0.000000     0.000000     0.000000     9.090094    10.679289    32.924492     0.000000     0.000000     0.000000     3.293456    -0.280023    -4.864354   -56.552143   -13.205095   -21.185452     3.075771     2.256204  -107.482903    35.563496    -9.983871   -43.434807     0.000000     0.000000     0.000000    -4.505845    -0.297380     3.818501    73.989120    -0.717580     4.921588    -2.427290     2.352753    91.787231    -2.970885   -21.387054   -17.245434     0.000000     0.000000     0.000000     0.000000     0.000000     0.000000     0.000000     0.000000     0.000000    -5.197544    -1.572634   -28.075928    -0.007092    10.880996     0.000675     5.258708   -12.649036    -9.273513     0.000000     0.000000     0.000000    -9.419873   -16.300945     1.569510     0.000000    -3.456365     0.000000     5.020417     1.973543     5.511673     0.000000     0.000000     0.000000 
    0.029192     0.941109     0.068652     5.197429    11.145163     2.299953    -6.473039   -10.484195    -0.840767    -1.515785     3.272887     0.141296     0.000000     0.000000     0.000000     0.000000     0.000000     0.000000     8.921168    10.597267    33.257259     0.000000     0.000000     0.000000     3.866578    -0.323259    -4.799736   -56.781464   -12.705992   -22.666367     3.051594     2.254062  -107.102974    36.077995   -10.315987   -43.010017     0.000000     0.000000     0.000000    -4.542854    -0.270214     3.455813    73.912048    -0.964679     4.982562    -2.434133     2.356112    91.866783    -2.707061   -21.383230   -17.037338     0.000000     0.000000     0.000000     0.000000     0.000000     0.000000     0.000000     0.000000     0.000000    -5.821511    -0.899729   -26.551659     0.000000    11.577826     0.000000     7.023838    -9.977338   -10.302486     0.000000     0.000000     0.000000    -9.615602   -15.121104     1.617729     0.000193    -3.162853     0.007005     5.411533     1.011289     5.369175     0.000000     0.000000     0.000000 
    0.035474     0.942903     0.084309     4.921416    10.974739     2.418015    -6.220771   -10.647895    -0.826538    -1.327415     3.361088     0.395907     0.000000     0.000000     0.000000     0.000000     0.000000     0.000000     8.937159     9.835402    33.856441     0.000000     0.000000     0.000000     4.417965    -0.368145    -4.818020   -56.975967   -12.333718   -24.043478     3.045901     2.261607  -106.817406    36.375217   -10.544032   -42.447586     0.000000     0.000000     0.000000    -4.578651    -0.241880     3.071324    73.849419    -1.345526     5.038265    -2.437929     2.352051    92.054840    -2.255859   -21.459291   -16.651449     0.000000     0.000000     0.000000     0.000000     0.000000     0.000000     0.000000     0.000000     0.000000    -6.392256    -0.331496   -25.150608     0.000000    12.168894     0.000000     8.842579    -7.100130   -11.226912     0.000000     0.000000     0.000000    -9.753927   -14.107181     1.726560     0.000169    -2.770820     0.007002     5.758443     0.338347     5.190016     0.000000     0.000000     0.000000 
    0.040535     0.944643     0.098158     4.639652    10.796416     2.529034    -5.974992   -10.760085    -0.823516    -1.151393     3.436488     0.587443     0.000000     0.000000     0.000000     0.000000     0.000000     0.000000     9.058505     8.775644    34.902493     0.000000     0.000000     0.000000     4.933803    -0.425384    -4.989979   -57.085941   -12.129230   -25.231844     3.043151     2.265336  -106.677429    36.363453   -10.573869   -41.716621     0.000000     0.000000     0.000000    -4.628060    -0.224595     2.784604    73.950172    -1.653165     5.160121    -2.440709     2.348845    92.198257    -1.980794   -21.587322   -16.394066     0.000000     0.000000     0.000000     0.000000     0.000000     0.000000     0.000000     0.000000     0.000000    -6.807980     0.230693   -24.118036     0.000000    12.498062     0.000000    10.446669    -4.236366   -11.987841     0.000000     0.000000     0.000000    -9.786211   -13.302099     1.902970     0.000000    -2.294743     0.000000     6.012349    -0.025971     4.977123     0.000000     0.000000     0.000000 
    0.045061     0.946306     0.110443     4.357728    10.632385     2.645800    -5.761005   -10.800896    -0.861646    -0.994094     3.506283     0.695307     0.000000     0.000000     0.000000     0.000000     0.000000     0.000000     9.261870     7.474383    36.170200     0.000000     0.000000     0.000000     5.390521    -0.522329    -5.580265   -56.973156   -12.324363   -25.938194     3.053792     2.250735  -107.011879    35.236217   -10.087695   -40.353539     0.000000     0.000000     0.000000    -4.677618    -0.211951     2.617043    74.330727    -1.712947     5.505055    -2.441295     2.358097    92.223122    -2.141120   -21.809681   -16.420794     0.000000     0.000000     0.000000     0.000000     0.000000     0.000000     0.000000     0.000000     0.000000    -7.043139     0.898670   -23.686272     0.000000    12.336591     0.000000    11.563539    -1.608999   -12.557062     0.000000     0.000000     0.000000    -9.789111   -12.684509     2.109865     0.000000    -1.735043     0.000000     6.254820    -0.142578     4.703547     0.000000     0.000000     0.000000 
    0.049908     0.947860     0.121915     4.076702    10.466909     2.754461    -5.569994   -10.741841    -0.932049    -0.839689     3.563340     0.670004     0.000000     0.000000     0.000000     0.000000     0.000000     0.000000     9.526249     5.986997    37.399750     0.000000     0.000000     0.000000     5.759820    -0.657719    -6.512683   -56.702824   -12.863557   -26.160957     3.080731     2.249501  -107.733475    33.225731    -9.194407   -38.494633     0.000000     0.000000     0.000000    -4.740507    -0.218059     2.560677    74.869873    -1.616727     5.997094    -2.445555     2.353907    92.188568    -2.461537   -22.083193   -16.562122     0.000000     0.000000     0.000000     0.000000     0.000000     0.000000     0.000000     0.000000     0.000000    -7.520644     1.320038   -23.561640    -0.007124    12.512733     0.000781    13.106630     1.518443   -12.637053     0.000000     0.000000     0.000000    -9.805160   -12.195660     2.332626     0.000000    -1.098310     0.000000     6.518846    -0.120072     4.415266     0.000000     0.000000     0.000000 
